<svg width="40" height="40" viewBox="0 0 40 40" fill="none" xmlns="http://www.w3.org/2000/svg">
  <defs>
    <linearGradient id="logoGradient" x1="0%" y1="0%" x2="100%" y2="100%">
      <stop offset="0%" style="stop-color:#6366F1;stop-opacity:1" />
      <stop offset="100%" style="stop-color:#8B5CF6;stop-opacity:1" />
    </linearGradient>
  </defs>
  
  <!-- Background circle -->
  <circle cx="20" cy="20" r="18" fill="url(#logoGradient)" stroke="#FFFFFF" stroke-width="2"/>
  
  <!-- Sync arrows -->
  <g transform="translate(20, 20)">
    <!-- Central dot -->
    <circle cx="0" cy="0" r="2" fill="#FFFFFF"/>
    
    <!-- Arrow 1 - Top -->
    <path d="M0,-8 L-2,-6 M0,-8 L2,-6 M0,-8 L0,-4" stroke="#FFFFFF" stroke-width="1.5" stroke-linecap="round" fill="none"/>
    
    <!-- Arrow 2 - Top Right -->
    <path d="M5.66,-5.66 L3.66,-3.66 M5.66,-5.66 L3.66,-7.66 M5.66,-5.66 L2.83,-2.83" stroke="#FFFFFF" stroke-width="1.5" stroke-linecap="round" fill="none"/>
    
    <!-- Arrow 3 - Bottom Right -->
    <path d="M5.66,5.66 L3.66,7.66 M5.66,5.66 L7.66,3.66 M5.66,5.66 L2.83,2.83" stroke="#FFFFFF" stroke-width="1.5" stroke-linecap="round" fill="none"/>
    
    <!-- Arrow 4 - Bottom Left -->
    <path d="M-5.66,5.66 L-7.66,3.66 M-5.66,5.66 L-3.66,7.66 M-5.66,5.66 L-2.83,2.83" stroke="#FFFFFF" stroke-width="1.5" stroke-linecap="round" fill="none"/>
  </g>
</svg>

